<svg width="32" height="11" viewBox="0 0 32 11" fill="none" xmlns="http://www.w3.org/2000/svg">
<path d="M16.4121 3.61826C16.394 5.0458 17.6843 5.84237 18.6563 6.31603C19.6549 6.80196 19.9904 7.1136 19.9864 7.54821C19.979 8.21326 19.1898 8.5068 18.4514 8.5182C17.1631 8.53816 16.414 8.17037 15.8184 7.8922L15.3543 10.0639C15.9518 10.3392 17.0582 10.5793 18.2054 10.5898C20.8985 10.5898 22.6604 9.26048 22.6699 7.19938C22.6804 4.58355 19.0517 4.43876 19.0765 3.26956C19.0851 2.91503 19.4234 2.5367 20.1646 2.44051C20.5316 2.39191 21.5445 2.35472 22.6928 2.88354L23.1436 0.782398C22.526 0.557533 21.7323 0.342212 20.744 0.342212C18.2093 0.342212 16.4265 1.68967 16.4121 3.61826ZM27.4745 0.523195C26.9828 0.523195 26.5684 0.810041 26.3834 1.25023L22.5365 10.4355H25.2276L25.7631 8.95554H29.0516L29.3622 10.4355H31.7341L29.6643 0.523195H27.4745ZM27.851 3.20088L28.6276 6.92307H26.5007L27.851 3.20088ZM13.1493 0.523319L11.0281 10.4354H13.5925L15.7127 0.523071H13.1493V0.523319ZM9.35573 0.523071L6.68659 7.26991L5.60689 1.53336C5.4802 0.892972 4.97989 0.523195 4.4243 0.523195H0.0611129L0 0.811033C0.895744 1.0054 1.91347 1.3189 2.53005 1.65434C2.90739 1.85925 3.01498 2.03837 3.13895 2.52529L5.18393 10.4355H7.89385L12.0485 0.523195H9.35573" fill="url(#paint0_linear_678_63416)"/>
<defs>
<linearGradient id="paint0_linear_678_63416" x1="14.5894" y1="10.7954" x2="14.886" y2="0.270943" gradientUnits="userSpaceOnUse">
<stop stop-color="#222357"/>
<stop offset="1" stop-color="#254AA5"/>
</linearGradient>
</defs>
</svg>
